<?xml version="1.0" encoding="utf-8"?>
<!-- Generator: Adobe Illustrator 22.1.0, SVG Export Plug-In . SVG Version: 6.00 Build 0)  -->
<svg version="1.1" id="Layer_1" xmlns="http://www.w3.org/2000/svg" xmlns:xlink="http://www.w3.org/1999/xlink" x="0px" y="0px"
	 viewBox="0 0 1279.6 538.3" style="enable-background:new 0 0 1279.6 538.3;" xml:space="preserve">
<style type="text/css">
	.st0{fill:url(#SVGID_1_);}
	.st1{fill:url(#SVGID_2_);}
	.st2{fill:url(#SVGID_3_);}
	.st3{fill:url(#SVGID_4_);}
	.st4{fill:url(#SVGID_5_);}
	.st5{fill:url(#SVGID_6_);}
</style>
<g id="a">
</g>
<g>
	<rect y="0" width="1279.6" height="538.3"/>
	<g>
		<linearGradient id="SVGID_1_" gradientUnits="userSpaceOnUse" x1="0" y1="269.1675" x2="439.902" y2="269.1675">
			<stop  offset="0" style="stop-color:#9C7900"/>
			<stop  offset="0.1" style="stop-color:#A78200"/>
			<stop  offset="0.71" style="stop-color:#E6B400"/>
			<stop  offset="0.8147" style="stop-color:#FFC700"/>
		</linearGradient>
		<polygon class="st0" points="393.7,332.6 570.7,203.9 351.8,203.9 285.4,0 219.1,203.9 0,203.9 177.3,332.6 110.4,538.3 
			285.5,411.2 460.7,538.3 		"/>
		<linearGradient id="SVGID_2_" gradientUnits="userSpaceOnUse" x1="0" y1="371.1247" x2="570.7137" y2="371.1247">
			<stop  offset="0" style="stop-color:#FFC700"/>
			<stop  offset="0.29" style="stop-color:#E6B400"/>
			<stop  offset="0.9" style="stop-color:#A78200"/>
			<stop  offset="1" style="stop-color:#9C7900"/>
		</linearGradient>
		<polygon class="st1" points="0,203.9 570.7,203.9 110.4,538.3 177.3,332.6 		"/>
	</g>
	<g>
		
			<radialGradient id="SVGID_3_" cx="1027.1698" cy="301.8775" r="87.3176" gradientTransform="matrix(-0.7071 0.7071 -4.2426 -4.2426 3034.2461 856.3166)" gradientUnits="userSpaceOnUse">
			<stop  offset="0" style="stop-color:#FFFFFF"/>
			<stop  offset="0.64" style="stop-color:#FFFFFF"/>
			<stop  offset="1" style="stop-color:#BABABA"/>
		</radialGradient>
		<path class="st2" d="M951.9,255.3v93.1c0,28.3,23,51.3,51.3,51.3h48c28.3,0,51.3-23,51.3-51.3v-93.1c0-28.3-23-51.3-51.3-51.3h-48
			C974.9,204,951.9,227,951.9,255.3z M1038.3,365.7H1016c-13.1,0-23.7-10.6-23.7-23.7v-80.4c0-13.1,10.6-23.7,23.7-23.7h22.3
			c13.1,0,23.7,10.6,23.7,23.7v80.4C1062,355.1,1051.4,365.7,1038.3,365.7z"/>
		
			<radialGradient id="SVGID_4_" cx="1204.3185" cy="301.8775" r="87.3121" gradientTransform="matrix(-0.7071 0.7071 -4.2426 -4.2426 3336.658 731.0535)" gradientUnits="userSpaceOnUse">
			<stop  offset="0" style="stop-color:#FFFFFF"/>
			<stop  offset="0.64" style="stop-color:#FFFFFF"/>
			<stop  offset="1" style="stop-color:#BABABA"/>
		</radialGradient>
		<path class="st3" d="M1239.2,204v123.9L1169.5,204H1149c-11,0-20,9-20,20v175.8h40.4V275.9l69.7,123.9h40.4V204H1239.2z"/>
		
			<radialGradient id="SVGID_5_" cx="687.0364" cy="301.8675" r="85.5931" gradientTransform="matrix(-0.7071 0.7071 -4.2426 -4.2426 2453.5598 1096.7749)" gradientUnits="userSpaceOnUse">
			<stop  offset="0" style="stop-color:#FFFFFF"/>
			<stop  offset="0.64" style="stop-color:#FFFFFF"/>
			<stop  offset="1" style="stop-color:#BABABA"/>
		</radialGradient>
		<path class="st4" d="M758.3,238.1L758.3,238.1L758.3,238.1L758.3,238.1V204H635.8c-11,0-20,9-20,20v14.1h96l-96,125.4v36.2h142.5
			v-36.2h-96L758.3,238.1L758.3,238.1z"/>
		
			<radialGradient id="SVGID_6_" cx="858.0748" cy="302.0075" r="85.669" gradientTransform="matrix(-0.7071 0.7071 -4.2426 -4.2426 2746.1348 976.5663)" gradientUnits="userSpaceOnUse">
			<stop  offset="0" style="stop-color:#FFFFFF"/>
			<stop  offset="0.64" style="stop-color:#FFFFFF"/>
			<stop  offset="1" style="stop-color:#BABABA"/>
		</radialGradient>
		<path class="st5" d="M929.3,238.1V204H827h-20.2c-11,0-20,9-20,20v14.1v41.7v34.1v49.7v36.2v0.3H827v-0.3h102.3v-36.2H827v-49.7
			h56.3c11,0,20-9,20-20v-14.1H827v-41.7H929.3z"/>
	</g>
</g>
</svg>
